<svg width="32" height="32" viewBox="0 0 32 32" fill="none" xmlns="http://www.w3.org/2000/svg">
<g clip-path="url(#clip0_7_3831)">
<path d="M15.9999 31.36C24.483 31.36 31.3599 24.4831 31.3599 16C31.3599 7.51692 24.483 0.640015 15.9999 0.640015C7.5168 0.640015 0.639893 7.51692 0.639893 16C0.639893 24.4831 7.5168 31.36 15.9999 31.36Z" stroke="white" stroke-width="2" stroke-miterlimit="10" stroke-linecap="round"/>
<circle cx="16" cy="16" r="16" fill="#D9D9D9"/>
<path d="M19.1571 22.7379C19.0637 21.7063 19.0995 20.9863 19.0995 20.0435C19.5667 19.7984 20.4038 18.2355 20.5453 16.9152C20.9126 16.8851 21.4918 16.5267 21.6614 15.1117C21.753 14.352 21.3894 13.9245 21.168 13.7901C21.7658 11.9923 23.0074 6.43073 18.8717 5.85601C18.4461 5.1085 17.3562 4.73026 15.9398 4.73026C10.2733 4.83458 9.58977 9.0093 10.832 13.7901C10.6112 13.9245 10.2477 14.352 10.3386 15.1117C10.5088 16.5267 11.0874 16.8851 11.4547 16.9152C11.5955 18.2349 12.4659 19.7984 12.9344 20.0435C12.9344 20.9863 12.9696 21.7063 12.8762 22.7379C12.0691 24.9075 7.92449 25.0771 5.53345 27.1693C8.03329 29.6864 12.0845 31.4867 16.3597 31.4867C20.6349 31.4867 25.6602 28.1114 26.4966 27.1904C24.1203 25.0791 19.9661 24.9152 19.1571 22.7379Z" fill="white"/>
</g>
<defs>
<clipPath id="clip0_7_3831">
<rect width="32" height="32" fill="white"/>
</clipPath>
</defs>
</svg>
