<svg width="40" height="40" viewBox="0 0 40 40" fill="none" xmlns="http://www.w3.org/2000/svg">
<path d="M33.75 20.2344H19.7656V6.25C19.7656 6.07812 19.625 5.9375 19.4531 5.9375H18.4375C16.3856 5.93414 14.3532 6.33654 12.4573 7.12157C10.5615 7.90659 8.83957 9.05873 7.39065 10.5117C5.96373 11.9342 4.82678 13.6204 4.04299 15.4766C3.22739 17.4017 2.80887 19.4717 2.81252 21.5625C2.80916 23.6144 3.21157 25.6468 3.99659 27.5427C4.78162 29.4385 5.93376 31.1604 7.38674 32.6094C8.82034 34.043 10.4922 35.1719 12.3516 35.957C14.2767 36.7726 16.3467 37.1911 18.4375 37.1875C20.4895 37.1909 22.5218 36.7884 24.4177 36.0034C26.3136 35.2184 28.0355 34.0663 29.4844 32.6133C30.918 31.1797 32.0469 29.5078 32.8321 27.6484C33.6477 25.7233 34.0662 23.6533 34.0625 21.5625V20.5469C34.0625 20.375 33.9219 20.2344 33.75 20.2344ZM27.5664 30.7734C26.3568 31.9736 24.9224 32.9233 23.3451 33.5681C21.7679 34.2129 20.0789 34.5402 18.375 34.5312C14.9336 34.5156 11.6992 33.168 9.26565 30.7344C6.81643 28.2852 5.46877 25.0273 5.46877 21.5625C5.46877 18.0977 6.81643 14.8398 9.26565 12.3906C11.3985 10.2578 14.1446 8.95703 17.1094 8.66015V22.8906H31.3399C31.0391 25.8711 29.7266 28.6328 27.5664 30.7734ZM37.1875 18.0625L37.086 16.9609C36.7539 13.3633 35.1563 9.96875 32.586 7.40625C30.0139 4.83904 26.6263 3.25025 23.0078 2.91406L21.9024 2.8125C21.7188 2.79687 21.5625 2.9375 21.5625 3.12109V18.125C21.5625 18.2969 21.7031 18.4375 21.875 18.4375L36.875 18.3984C37.0586 18.3984 37.2031 18.2422 37.1875 18.0625ZM24.211 15.7891V5.76562C26.6716 6.28065 28.9298 7.49928 30.711 9.27343C32.4961 11.0547 33.7188 13.3203 34.2266 15.7617L24.211 15.7891Z" fill="black"/>
</svg>
