<svg width="40" height="40" viewBox="0 0 40 40" fill="none" xmlns="http://www.w3.org/2000/svg">
<g clip-path="url(#clip0_3_41)">
<path d="M26.6667 5C27.1087 5 27.5326 5.17559 27.8452 5.48816C28.1577 5.80072 28.3333 6.22464 28.3333 6.66667V8.33333H31.6667C32.5507 8.33333 33.3986 8.68452 34.0237 9.30964C34.6488 9.93476 35 10.7826 35 11.6667V31.6667C35 32.5507 34.6488 33.3986 34.0237 34.0237C33.3986 34.6488 32.5507 35 31.6667 35H8.33333C7.44928 35 6.60143 34.6488 5.97631 34.0237C5.35119 33.3986 5 32.5507 5 31.6667V11.6667C5 10.7826 5.35119 9.93476 5.97631 9.30964C6.60143 8.68452 7.44928 8.33333 8.33333 8.33333H11.6667V6.66667C11.6667 6.22464 11.8423 5.80072 12.1548 5.48816C12.4674 5.17559 12.8913 5 13.3333 5C13.7754 5 14.1993 5.17559 14.5118 5.48816C14.8244 5.80072 15 6.22464 15 6.66667V8.33333H25V6.66667C25 6.22464 25.1756 5.80072 25.4882 5.48816C25.8007 5.17559 26.2246 5 26.6667 5ZM31.6667 11.6667H8.33333V31.6667H31.6667V11.6667ZM24.7067 15.6317C25.021 15.3281 25.442 15.1601 25.879 15.1639C26.316 15.1677 26.734 15.343 27.043 15.652C27.352 15.961 27.5273 16.379 27.5311 16.816C27.5349 17.253 27.3669 17.674 27.0633 17.9883L18.8267 26.2267C18.6703 26.3831 18.4847 26.5073 18.2804 26.592C18.076 26.6766 17.857 26.7202 17.6358 26.7202C17.4146 26.7202 17.1956 26.6766 16.9913 26.592C16.787 26.5073 16.6013 26.3831 16.445 26.2267L12.9217 22.7C12.6181 22.3857 12.4501 21.9647 12.4539 21.5277C12.4577 21.0907 12.633 20.6726 12.942 20.3636C13.251 20.0546 13.669 19.8793 14.106 19.8755C14.543 19.8717 14.964 20.0397 15.2783 20.3433L17.6367 22.7L24.7067 15.6317Z" fill="black"/>
</g>
<defs>
<clipPath id="clip0_3_41">
<rect width="40" height="40" fill="white"/>
</clipPath>
</defs>
</svg>
