<svg width="96" height="96" viewBox="0 0 96 96" fill="none" xmlns="http://www.w3.org/2000/svg">
<circle opacity="0.4" cx="48" cy="48" r="48" fill="#D9D9D9"/>
<circle cx="48" cy="48" r="44" fill="#F1F8FF"/>
<path d="M63.8069 57.7366C62.946 59.9399 61.7114 62.0138 60.1385 63.8151C59.3541 64.7165 58.4965 65.5599 57.5648 66.3172C56.6339 67.0762 55.6372 67.7591 54.587 68.3551C52.4857 69.544 50.1671 70.3734 47.7671 70.7942C46.5663 71.0006 45.3457 71.1103 44.1234 71.1111H43.665L43.4353 71.1094L43.2065 71.098C42.9012 71.0808 42.595 71.0701 42.2888 71.0472L41.3736 70.9539C41.069 70.917 40.7662 70.8646 40.4624 70.8204C39.2509 70.6174 38.0542 70.3128 36.8887 69.9083L36.4542 69.7503C36.3101 69.6954 36.162 69.6496 36.0212 69.5865L35.1669 69.2288L34.3307 68.83C34.1891 68.7661 34.0566 68.6875 33.92 68.6155L33.5117 68.3952C31.3512 67.1908 29.3824 65.6213 27.7355 63.752C26.0918 61.8811 24.7626 59.7229 23.8342 57.391C22.9173 55.0551 22.4054 52.5521 22.3313 50.0287C22.3 48.7678 22.3724 47.5004 22.5527 46.2444L22.6268 45.7744C22.6523 45.618 22.6728 45.46 22.7082 45.3052L22.9041 44.3719L23.1461 43.4483C23.1831 43.2935 23.2383 43.1437 23.2836 42.9914L23.4276 42.5362C24.2334 40.1184 25.454 37.8258 27.0466 35.8076C28.6384 33.7901 30.58 32.0363 32.7718 30.6461C34.9685 29.2648 37.413 28.2569 39.967 27.6764C41.2452 27.3915 42.5489 27.2196 43.8584 27.1508C45.1679 27.0771 46.4856 27.1238 47.7959 27.2744C50.4174 27.5716 52.9935 28.3445 55.3779 29.5129C57.7566 30.6944 59.9476 32.2738 61.8044 34.1946C63.6711 36.1056 65.2003 38.3548 66.3189 40.8037L61.0167 43.0471C60.2677 41.1648 59.1961 39.3905 57.8339 37.8496C56.4817 36.2997 54.8429 34.988 53.0314 33.9703C52.1219 33.4667 51.1688 33.0385 50.1836 32.6914L49.9992 32.625L49.8124 32.5661L49.4387 32.4474C49.1885 32.3712 48.935 32.3057 48.6832 32.2345C48.428 32.1764 48.1745 32.1084 47.9169 32.0568L47.5309 31.9799L47.3375 31.9414L47.1432 31.9103C46.107 31.7391 45.0502 31.6466 43.9917 31.6548C42.9333 31.6581 41.8748 31.7432 40.8287 31.9217C38.7398 32.2902 36.7052 33.0082 34.8385 34.0546C32.9776 35.11 31.2878 36.4847 29.8697 38.1083C29.1577 38.9181 28.5248 39.7974 27.9659 40.7226C27.4079 41.6478 26.9281 42.623 26.5346 43.6333L26.3931 44.0149C26.3478 44.1426 26.2935 44.2679 26.2556 44.3981L26.0095 45.1751L25.8029 45.9635C25.7651 46.0945 25.7412 46.2288 25.7132 46.3615L25.6301 46.761C25.4219 47.8303 25.3042 48.9193 25.2754 50.0156C25.2309 52.2074 25.5651 54.4099 26.2671 56.5051C26.9824 58.5954 28.0631 60.5728 29.4532 62.3241C30.8466 64.073 32.5545 65.5828 34.4706 66.779L34.8336 66.9976C34.9554 67.0688 35.0731 67.1483 35.199 67.2121L35.9463 67.615L36.7126 67.9818C36.8393 68.0464 36.9727 68.0948 37.1027 68.1512L37.4953 68.3158C38.548 68.7399 39.6394 69.0765 40.7538 69.3204C41.0337 69.3753 41.3127 69.4383 41.5942 69.4867L42.4419 69.6152C42.7259 69.6496 43.0106 69.6742 43.2954 69.7045L43.5094 69.7266L43.7242 69.738L44.1539 69.7593C45.2996 69.8158 46.4527 69.7691 47.5951 69.6299C49.8799 69.3442 52.1252 68.6679 54.1985 67.6264C55.2339 67.104 56.2281 66.4933 57.1656 65.8039C58.1047 65.1153 58.9788 64.3366 59.7887 63.4949C61.4118 61.8124 62.7311 59.8334 63.6949 57.6883L63.811 57.7357L63.8069 57.7366Z" fill="#007BFF"/>
<path d="M61.7549 33.2424L58.2441 30.4726L60.6168 29.0657L62.6993 30.7094L61.7549 33.2424Z" fill="#007BFF"/>
<path d="M66.8313 40.4819L63.8125 35.2561L66.9682 34.3561L68.5461 36.8002L66.8313 40.4819Z" fill="#007BFF"/>
<path d="M47.6628 26.5596H44.043L44.779 24.8889H46.9267L47.6628 26.5596Z" fill="#007BFF"/>
<path d="M66.0944 40.482C67.0183 42.6817 66.6331 44.9779 65.2341 45.6102C63.8351 46.2424 61.9522 44.9713 61.0283 42.7717" fill="#007BFF"/>
<path d="M67.9379 51.4947L66.6166 53.1973C66.5158 53.3264 66.3191 53.3206 66.2265 53.1857L62.1866 47.2673C62.0304 47.038 62.3188 46.7688 62.5361 46.9411L67.6288 50.9813C67.6354 50.9863 67.6412 50.9912 67.6487 50.9954L67.8784 51.1428C67.9982 51.2198 68.0255 51.3829 67.9387 51.4947H67.9379Z" fill="#007BFF"/>
<path d="M68.3429 54.5967L69.7236 53.0941C69.8368 52.9701 70.0261 52.9892 70.1174 53.1332L74.3458 59.8103C74.5165 60.0799 74.1954 60.3944 73.9673 60.1814L69.3742 55.9047L68.3632 55.0119C68.2451 54.9071 68.2354 54.714 68.3429 54.5967Z" fill="#007BFF"/>
<path d="M54.9025 28.7871L51.2827 27.366L52.676 25.7242L54.8229 26.5671L54.9025 28.7871Z" fill="#007BFF"/>
<path d="M40.98 26.9948L37.6387 27.9518L37.8963 26.2915L39.8783 25.7242L40.98 26.9948Z" fill="#007BFF"/>
<path d="M34.8543 28.9046L32.2081 30.4579L32.0698 28.8728L33.6404 27.9519L34.8543 28.9046Z" fill="#007BFF"/>
<path d="M30.1206 32.0669L28.1937 33.7992L27.8931 32.5992L29.0359 31.5717L30.1206 32.0669Z" fill="#007BFF"/>
<path d="M26.5009 35.8865L25.1478 37.976L24.5518 36.9876L25.3543 35.7484L26.5009 35.8865Z" fill="#007BFF"/>
<path d="M62.9337 58.9538C62.4177 58.5066 62.8489 58.4975 63.2942 57.9792L70.8085 47.877C71.3812 47.2099 72.2215 46.9719 72.7358 47.3323L72.935 47.472C73.4337 47.8216 73.3851 48.6714 72.8296 49.3195L63.9451 58.4347C63.4999 58.953 63.4513 59.4018 62.9345 58.9546L62.9337 58.9538Z" fill="#007BFF"/>
<path d="M59.9147 50.6452C59.9147 52.4647 59.5727 54.2891 58.8985 55.9906C58.2293 57.6946 57.2278 59.27 55.9664 60.62C54.7026 61.9668 53.1754 63.0875 51.4712 63.8838C50.619 64.2811 49.7259 64.6039 48.8048 64.8316C47.8838 65.061 46.9357 65.2003 45.981 65.247C44.0725 65.3379 42.1165 65.0578 40.2801 64.3901C38.4446 63.7232 36.733 62.6755 35.2928 61.3213C33.8501 59.9696 32.6814 58.3107 31.885 56.4781C31.0886 54.6463 30.6786 52.64 30.6777 50.6452C30.6777 48.6504 31.0886 46.6441 31.885 44.8124C32.6814 42.9806 33.8501 41.3209 35.2928 39.9691C36.733 38.615 38.4446 37.5672 40.2801 36.9004C42.1165 36.2319 44.0725 35.9525 45.981 36.0434C46.9357 36.091 47.883 36.2294 48.8048 36.4588C49.7267 36.6865 50.6198 37.0101 51.4712 37.4066C53.1754 38.2029 54.7026 39.3236 55.9664 40.6704C57.2278 42.0205 58.2301 43.5958 58.8985 45.2998C59.5727 47.0005 59.9155 48.8257 59.9147 50.6452ZM57.7306 50.6452C57.729 49.1059 57.4107 47.5723 56.7948 46.1715C56.178 44.7714 55.2726 43.5041 54.1572 42.4784C53.0434 41.4503 51.7238 40.6663 50.3213 40.178C48.9172 39.6898 47.4344 39.5014 45.9819 39.5915C44.5277 39.6841 43.122 40.0634 41.8524 40.6843C40.5811 41.302 39.446 42.1589 38.5086 43.1797C37.5736 44.2029 36.8355 45.3875 36.3458 46.6589C35.8521 47.9287 35.6011 49.2804 35.6003 50.6444C35.6003 52.0084 35.8513 53.3601 36.3458 54.6299C36.8355 55.9013 37.5736 57.0851 38.5086 58.1091C39.446 59.1299 40.5811 59.9868 41.8524 60.6045C43.122 61.2254 44.5277 61.6056 45.9819 61.6973C47.4344 61.7874 48.9172 61.599 50.3213 61.1108C51.7238 60.6225 53.0434 59.8385 54.1572 58.8104C55.2734 57.7847 56.178 56.5174 56.7948 55.1173C57.4107 53.7165 57.729 52.1829 57.7306 50.6436V50.6452Z" fill="#007BFF"/>
</svg>
