<svg width="18" height="18" viewBox="0 0 18 18" fill="none" xmlns="http://www.w3.org/2000/svg">
<path d="M9 0.876953C7.39303 0.876953 5.82214 1.35348 4.486 2.24626C3.14985 3.13905 2.10844 4.408 1.49348 5.89265C0.87852 7.3773 0.717618 9.01097 1.03112 10.5871C1.34463 12.1632 2.11846 13.6109 3.25476 14.7472C4.39106 15.8835 5.8388 16.6573 7.4149 16.9708C8.99099 17.2843 10.6247 17.1234 12.1093 16.5085C13.594 15.8935 14.8629 14.8521 15.7557 13.516C16.6485 12.1798 17.125 10.6089 17.125 9.00195C17.1227 6.84777 16.266 4.78246 14.7427 3.25922C13.2195 1.73598 11.1542 0.879228 9 0.876953ZM8.6875 4.62695C8.87292 4.62695 9.05418 4.68194 9.20835 4.78495C9.36252 4.88796 9.48268 5.03438 9.55364 5.20569C9.6246 5.37699 9.64316 5.56549 9.60699 5.74735C9.57082 5.92921 9.48153 6.09625 9.35042 6.22737C9.2193 6.35848 9.05226 6.44777 8.8704 6.48394C8.68854 6.52011 8.50004 6.50155 8.32874 6.43059C8.15743 6.35963 8.01101 6.23947 7.908 6.0853C7.80499 5.93113 7.75 5.74987 7.75 5.56445C7.75 5.31581 7.84878 5.07736 8.02459 4.90154C8.20041 4.72572 8.43886 4.62695 8.6875 4.62695ZM9.625 13.377C9.29348 13.377 8.97554 13.2453 8.74112 13.0108C8.5067 12.7764 8.375 12.4585 8.375 12.127V9.00195C8.20924 9.00195 8.05027 8.9361 7.93306 8.81889C7.81585 8.70168 7.75 8.54271 7.75 8.37695C7.75 8.21119 7.81585 8.05222 7.93306 7.93501C8.05027 7.8178 8.20924 7.75195 8.375 7.75195C8.70652 7.75195 9.02447 7.88365 9.25889 8.11807C9.49331 8.35249 9.625 8.67043 9.625 9.00195V12.127C9.79076 12.127 9.94974 12.1928 10.0669 12.31C10.1842 12.4272 10.25 12.5862 10.25 12.752C10.25 12.9177 10.1842 13.0767 10.0669 13.1939C9.94974 13.3111 9.79076 13.377 9.625 13.377Z" fill="#007BFF"/>
</svg>
