<svg width="96" height="96" viewBox="0 0 96 96" fill="none" xmlns="http://www.w3.org/2000/svg">
<circle opacity="0.4" cx="48" cy="48" r="48" fill="#D9D9D9"/>
<circle cx="48" cy="48" r="44" fill="#F5FCFF"/>
<path d="M59.6176 50.0374C59.6176 50.9668 58.8113 51.7203 57.8166 51.7203C56.822 51.7203 56.0156 50.9668 56.0156 50.0374C56.0156 49.1079 56.822 48.3545 57.8166 48.3545C58.8113 48.3545 59.6176 49.1079 59.6176 50.0374Z" fill="#30808F"/>
<path d="M54.7167 45.2251C54.7167 46.1709 53.8971 46.9375 52.8862 46.9375C51.8752 46.9375 51.0557 46.1709 51.0557 45.2251C51.0557 44.2794 51.8752 43.5127 52.8862 43.5127C53.8971 43.5127 54.7167 44.2794 54.7167 45.2251Z" fill="#4D91A4"/>
<path d="M42.4302 42.3649C41.8018 43.1765 40.7611 43.423 40.1056 42.9154C39.4501 42.4079 39.4282 41.3386 40.0566 40.5271C40.6849 39.7155 41.7257 39.469 42.3811 39.9765C43.0366 40.484 43.0586 41.5534 42.4302 42.3649Z" fill="#7DB5CC"/>
<path d="M36.5339 43.6029C36.1501 44.4451 35.3225 44.8925 34.6853 44.6022C34.0481 44.3118 33.8427 43.3937 34.2265 42.5514C34.6103 41.7092 35.4379 41.2617 36.0751 41.5521C36.7123 41.8424 36.9177 42.7606 36.5339 43.6029Z" fill="#95CCE3"/>
<path d="M33.1548 40.4042C32.6734 41.1885 31.9414 41.6146 31.5197 41.3558C31.0981 41.097 31.1465 40.2514 31.6279 39.467C32.1093 38.6827 32.8413 38.2567 33.263 38.5155C33.6846 38.7743 33.6362 39.6199 33.1548 40.4042Z" fill="#90CAE0"/>
<path d="M38.4688 38.3665C37.8511 39.093 36.9396 39.3327 36.4331 38.902C35.9265 38.4712 36.0166 37.5331 36.6344 36.8066C37.2521 36.0801 38.1636 35.8404 38.6702 36.2712C39.1767 36.7019 39.0866 37.64 38.4688 38.3665Z" fill="#7EB6CD"/>
<path d="M45.3617 34.6695C45.8648 35.2813 45.6159 36.3171 44.8059 36.9832C43.9959 37.6494 42.9315 37.6934 42.4284 37.0817C41.9254 36.47 42.1742 35.4341 42.9842 34.768C43.7942 34.1019 44.8587 34.0578 45.3617 34.6695Z" fill="#63A2B4"/>
<path d="M52.8595 34.9239C52.9067 35.7538 52.1111 36.474 51.0825 36.5325C50.0539 36.5909 49.1819 35.9655 49.1347 35.1356C49.0876 34.3056 49.8831 33.5854 50.9117 33.527C51.9403 33.4685 52.8124 34.0939 52.8595 34.9239Z" fill="#3F8899"/>
<path d="M60.0312 35.1276C60.0312 35.9103 59.2249 36.5448 58.2302 36.5448C57.2355 36.5448 56.4292 35.9103 56.4292 35.1276C56.4292 34.3449 57.2355 33.7104 58.2302 33.7104C59.2249 33.7104 60.0312 34.3449 60.0312 35.1276Z" fill="#0C6C7A"/>
<path d="M63.0117 31.9061C62.8429 32.5356 61.927 32.8369 60.966 32.5791C60.005 32.3214 59.3629 31.6022 59.5317 30.9727C59.7005 30.3433 60.6164 30.042 61.5774 30.2997C62.5384 30.5574 63.1805 31.2767 63.0117 31.9061Z" fill="#096675"/>
<path d="M56.1336 30.5217C56.1336 31.2392 55.2744 31.8208 54.2145 31.8208C53.1546 31.8208 52.2954 31.2392 52.2954 30.5217C52.2954 29.8043 53.1546 29.2227 54.2145 29.2227C55.2744 29.2227 56.1336 29.8043 56.1336 30.5217Z" fill="#157281"/>
<path d="M59.4612 27.2695C59.4172 27.8591 58.5724 28.2766 57.5744 28.2021C56.5764 28.1276 55.803 27.5892 55.8471 26.9997C55.8911 26.4101 56.7358 25.9925 57.7338 26.0671C58.7318 26.1416 59.5052 26.6799 59.4612 27.2695Z" fill="#0C6475"/>
<path d="M63.1418 25.3181C63.0338 25.7499 62.145 25.8994 61.1568 25.6521C60.1686 25.4048 59.4551 24.8542 59.5631 24.4224C59.6712 23.9907 60.5599 23.8411 61.5481 24.0885C62.5364 24.3358 63.2499 24.8863 63.1418 25.3181Z" fill="#076674"/>
<path d="M60.1862 22.2811C60.1496 22.5577 59.3012 22.6736 58.2913 22.54C57.2814 22.4064 56.4924 22.0739 56.529 21.7973C56.5655 21.5206 57.4139 21.4047 58.4238 21.5383C59.4337 21.6719 60.2228 22.0045 60.1862 22.2811Z" fill="#0A6673"/>
<path d="M56.1932 23.6724C56.1932 24.129 55.3605 24.4991 54.3332 24.4991C53.3059 24.4991 52.4731 24.129 52.4731 23.6724C52.4731 23.2158 53.3059 22.8457 54.3332 22.8457C55.3605 22.8457 56.1932 23.2158 56.1932 23.6724Z" fill="#056873"/>
<path d="M53.1315 21.4229C53.1623 21.6566 52.3375 21.9582 51.2892 22.0966C50.2408 22.235 49.366 22.1577 49.3351 21.9241C49.3043 21.6904 50.1291 21.3888 51.1775 21.2504C52.2258 21.112 53.1006 21.1892 53.1315 21.4229Z" fill="#046675"/>
<path d="M45.9993 22.3275C46.0711 22.4989 45.3453 22.9659 44.3783 23.3705C43.4113 23.7751 42.5693 23.9642 42.4976 23.7928C42.4258 23.6214 43.1516 23.1544 44.1186 22.7498C45.0856 22.3451 45.9276 22.156 45.9993 22.3275Z" fill="#177283"/>
<path d="M48.9911 23.4239C49.1128 23.806 48.3866 24.3785 47.3691 24.7026C46.3515 25.0266 45.428 24.9795 45.3063 24.5973C45.1846 24.2151 45.9108 23.6426 46.9284 23.3186C47.9459 22.9945 48.8694 23.0417 48.9911 23.4239Z" fill="#157281"/>
<path d="M52.4106 26.3827C52.5 26.9822 51.7281 27.594 50.6867 27.7491C49.6452 27.9043 48.7286 27.544 48.6392 26.9445C48.5499 26.3449 49.3218 25.7331 50.3632 25.578C51.4047 25.4229 52.3213 25.7831 52.4106 26.3827Z" fill="#177080"/>
<path d="M48.7676 30.1011C49.0408 30.7588 48.4558 31.627 47.4609 32.0403C46.4659 32.4537 45.4379 32.2557 45.1647 31.598C44.8914 30.9404 45.4765 30.0721 46.4714 29.6588C47.4663 29.2454 48.4944 29.4435 48.7676 30.1011Z" fill="#3E8798"/>
<path d="M45.0506 26.8765C45.3016 27.3571 44.7745 28.1282 43.8733 28.5989C42.972 29.0696 42.038 29.0616 41.787 28.5811C41.536 28.1005 42.0631 27.3294 42.9644 26.8587C43.8656 26.388 44.7997 26.396 45.0506 26.8765Z" fill="#42899B"/>
<path d="M42.1168 25.0335C42.2827 25.305 41.7035 25.9611 40.8232 26.4989C39.9428 27.0367 39.0947 27.2525 38.9288 26.9809C38.7629 26.7094 39.3421 26.0533 40.2224 25.5155C41.1028 24.9777 41.9509 24.7619 42.1168 25.0335Z" fill="#3F899A"/>
<path d="M35.1923 29.6361C34.4859 30.3203 33.8035 30.7615 33.668 30.6216C33.5324 30.4817 33.9952 29.8136 34.7015 29.1294C35.4079 28.4453 36.0903 28.0041 36.2259 28.144C36.3614 28.2839 35.8986 28.9519 35.1923 29.6361Z" fill="#5B9CB0"/>
<path d="M38.6247 28.9132C38.8973 29.2276 38.509 30.0107 37.7575 30.6622C37.0059 31.3138 36.1758 31.5872 35.9032 31.2728C35.6306 30.9585 36.0189 30.1754 36.7704 29.5238C37.522 28.8722 38.3522 28.5989 38.6247 28.9132Z" fill="#599BAE"/>
<path d="M41.6388 31.1301C42.0528 31.6079 41.7609 32.5389 40.9868 33.2096C40.2127 33.8804 39.2495 34.0368 38.8355 33.559C38.4215 33.0812 38.7135 32.1501 39.4876 31.4794C40.2617 30.8087 41.2248 30.6523 41.6388 31.1301Z" fill="#5D9BB0"/>
<path d="M35.2176 35.4442C34.5906 36.1736 33.7843 36.5087 33.4166 36.1927C33.049 35.8766 33.2592 35.0291 33.8862 34.2997C34.5132 33.5703 35.3195 33.2352 35.6872 33.5513C36.0549 33.8673 35.8446 34.7148 35.2176 35.4442Z" fill="#79B2CB"/>
<path d="M32.7005 33.8927C32.129 34.6378 31.4873 35.1049 31.2672 34.9361C31.047 34.7673 31.3318 34.0264 31.9033 33.2813C32.4747 32.5362 33.1165 32.069 33.3366 32.2378C33.5567 32.4067 33.2719 33.1476 32.7005 33.8927Z" fill="#71ACC4"/>
<path d="M29.1621 43.0754C28.8314 43.7911 28.3283 44.2627 28.0385 44.1288C27.7487 43.9949 27.7818 43.3061 28.1126 42.5904C28.4433 41.8746 28.9464 41.403 29.2362 41.5369C29.526 41.6708 29.4928 42.3596 29.1621 43.0754Z" fill="#9ED2EA"/>
<path d="M26.6766 44.9291C26.804 44.962 26.7693 45.5225 26.5991 46.1809C26.429 46.8394 26.1877 47.3465 26.0603 47.3135C25.9329 47.2806 25.9675 46.7201 26.1377 46.0617C26.3079 45.4033 26.5492 44.8962 26.6766 44.9291Z" fill="#9ED2E8"/>
<path d="M31.6248 45.3364C31.362 46.1155 30.754 46.6138 30.2667 46.4494C29.7794 46.285 29.5974 45.5202 29.8601 44.7412C30.1229 43.9621 30.731 43.4638 31.2183 43.6282C31.7056 43.7925 31.8876 44.5573 31.6248 45.3364Z" fill="#A3D9F1"/>
<path d="M30.4113 49.8782C30.3376 50.6301 29.8928 51.2019 29.418 51.1553C28.9431 51.1087 28.6179 50.4614 28.6917 49.7096C28.7654 48.9577 29.2102 48.3859 29.685 48.4325C30.1599 48.479 30.4851 49.1263 30.4113 49.8782Z" fill="#AEE0FA"/>
<path d="M34.8972 48.6343C34.8007 49.5208 34.1726 50.1796 33.4944 50.1058C32.8161 50.032 32.3445 49.2534 32.441 48.3669C32.5375 47.4804 33.1656 46.8216 33.8438 46.8954C34.5221 46.9692 34.9937 47.7477 34.8972 48.6343Z" fill="#A6DAF5"/>
<path d="M40.5739 47.4994C40.4106 48.4627 39.6105 49.1304 38.7869 48.9907C37.9634 48.8511 37.4281 47.957 37.5915 46.9937C37.7548 46.0304 38.5548 45.3627 39.3784 45.5024C40.202 45.642 40.7372 46.5361 40.5739 47.4994Z" fill="#91C9E0"/>
<path d="M38.8554 52.8511C38.9098 53.7675 38.2967 54.5493 37.4861 54.5974C36.6754 54.6455 35.9741 53.9417 35.9198 53.0254C35.8654 52.109 36.4785 51.3272 37.2891 51.2791C38.0998 51.231 38.801 51.9348 38.8554 52.8511Z" fill="#99CFE7"/>
<path d="M33.5586 53.4261C33.6839 54.2327 33.276 54.9658 32.6475 55.0634C32.019 55.1611 31.4079 54.5864 31.2826 53.7798C31.1573 52.9732 31.5652 52.2402 32.1936 52.1425C32.8221 52.0448 33.4332 52.6195 33.5586 53.4261Z" fill="#A4DAF2"/>
<path d="M29.5157 53.856C29.624 54.5046 29.365 55.0884 28.9371 55.1598C28.5092 55.2313 28.0745 54.7634 27.9662 54.1148C27.8578 53.4662 28.1169 52.8825 28.5448 52.811C28.9727 52.7395 29.4074 53.2074 29.5157 53.856Z" fill="#A6DDF7"/>
<path d="M28.757 57.1417C29.0043 57.7325 28.978 58.3064 28.6983 58.4235C28.4186 58.5405 27.9914 58.1564 27.7441 57.5655C27.4968 56.9746 27.5231 56.4007 27.8028 56.2837C28.0825 56.1666 28.5097 56.5508 28.757 57.1417Z" fill="#9DD3EB"/>
<path d="M32.349 57.6406C32.7024 58.3721 32.6165 59.145 32.1572 59.3668C31.6979 59.5887 31.0391 59.1756 30.6857 58.4441C30.3324 57.7126 30.4182 56.9398 30.8775 56.7179C31.3368 56.496 31.9956 56.9091 32.349 57.6406Z" fill="#9CD2EA"/>
<path d="M37.1831 57.5812C37.6707 58.364 37.5945 59.2922 37.0129 59.6544C36.4314 60.0166 35.5647 59.6757 35.0771 58.8929C34.5896 58.1101 34.6658 57.1819 35.2473 56.8197C35.8289 56.4575 36.6956 56.7984 37.1831 57.5812Z" fill="#92CAE1"/>
<path d="M31.5584 61.256C31.9811 61.9333 32.0592 62.6475 31.7329 62.8511C31.4066 63.0547 30.7994 62.6708 30.3767 61.9935C29.954 61.3162 29.8759 60.602 30.2022 60.3984C30.5285 60.1947 31.1357 60.5787 31.5584 61.256Z" fill="#90C4DC"/>
<path d="M36.0677 62.2364C36.6382 62.9843 36.7343 63.87 36.2824 64.2148C35.8304 64.5596 35.0015 64.2328 34.431 63.485C33.8605 62.7371 33.7643 61.8514 34.2163 61.5066C34.6682 61.1618 35.4971 61.4885 36.0677 62.2364Z" fill="#81B9D0"/>
<path d="M41.7758 62.4244C42.4396 63.1955 42.5163 64.2179 41.947 64.708C41.3777 65.1981 40.3781 64.9704 39.7142 64.1993C39.0504 63.4283 38.9737 62.4059 39.543 61.9158C40.1123 61.4256 41.1119 61.6534 41.7758 62.4244Z" fill="#73ADC3"/>
<path d="M40.4718 66.9409C41.2522 67.539 41.5978 68.3984 41.2437 68.8602C40.8897 69.322 39.9701 69.2115 39.1898 68.6134C38.4094 68.0152 38.0639 67.1559 38.4179 66.694C38.7719 66.2322 39.6915 66.3427 40.4718 66.9409Z" fill="#62A1B2"/>
<path d="M39.4676 70.3956C40.2647 70.9389 40.7384 71.6322 40.5258 71.9442C40.3132 72.2561 39.4947 72.0685 38.6976 71.5252C37.9005 70.9819 37.4268 70.2886 37.6394 69.9767C37.852 69.6647 38.6705 69.8523 39.4676 70.3956Z" fill="#5596AC"/>
<path d="M45.4667 71.1745C46.3826 71.5472 46.958 72.2597 46.752 72.7659C46.546 73.2721 45.6366 73.3804 44.7208 73.0078C43.8049 72.6351 43.2295 71.9226 43.4355 71.4164C43.6415 70.9101 44.5509 70.8019 45.4667 71.1745Z" fill="#358292"/>
<path d="M47.454 46.1403C47.2769 47.1442 46.6935 47.8823 45.6826 47.8823C44.6716 47.8823 43.8521 47.135 43.8521 46.1403C43.8521 45.1457 44.6716 44.3394 45.6826 44.3394C46.6935 44.3394 47.454 45.1457 47.454 46.1403Z" fill="#73B0C5"/>
<path d="M50.0516 40.2647C49.8154 41.3866 49.1466 42.0066 48.103 42.0066C47.0594 42.0066 46.3315 41.3479 46.3315 40.3532C46.3315 39.3586 47.5125 38.5522 48.1621 38.5522C49.2056 38.5522 50.0516 39.27 50.0516 40.2647Z" fill="#5F9DB2"/>
<path d="M51.9291 51.4096C51.9291 52.4206 51.1095 53.2401 50.0986 53.2401C49.0876 53.2401 48.2681 52.4206 48.2681 51.4096C48.2681 50.3987 49.0876 49.5791 50.0986 49.5791C51.1095 49.5791 51.9291 50.3987 51.9291 51.4096Z" fill="#5F9DB2"/>
<path d="M51.8384 72.4319C52.8143 72.5912 53.5531 73.04 53.4887 73.4343C53.4244 73.8286 52.5811 74.0191 51.6053 73.8598C50.6294 73.7005 49.8906 73.2516 49.955 72.8573C50.0193 72.463 50.8626 72.2726 51.8384 72.4319Z" fill="#358292"/>
<path d="M57.1903 72.5146C57.78 72.4325 58.2819 72.5372 58.3113 72.7484C58.3407 72.9596 57.8865 73.1974 57.2968 73.2795C56.7071 73.3617 56.2052 73.257 56.1758 73.0457C56.1463 72.8345 56.6006 72.5967 57.1903 72.5146Z" fill="#358292"/>
</svg>
