<svg width="88" height="88" viewBox="0 0 88 88" fill="none" xmlns="http://www.w3.org/2000/svg">
<circle cx="44" cy="44" r="44" fill="#F6F7FF"/>
<path fill-rule="evenodd" clip-rule="evenodd" d="M49.0909 28.7273H38.1818C32.9602 28.7273 28.7273 32.9602 28.7273 38.1818V49.8182C28.7273 55.0398 32.9602 59.2727 38.1818 59.2727H49.0909C54.3125 59.2727 58.5455 55.0398 58.5455 49.8182V47.6811L67.2727 38.6929V49.8182C67.2727 59.8597 59.1324 68 49.0909 68H38.1818C28.1403 68 20 59.8597 20 49.8182V38.1818C20 28.1403 28.1403 20 38.1818 20H49.0909C55.7121 20 61.5066 23.5392 64.6859 28.829L58.171 35.5387C58.1639 35.514 58.1566 35.4893 58.1492 35.4648L46.6643 47.2931C44.8456 49.1662 41.8527 49.2103 39.9796 47.3916C38.1065 45.5728 38.0624 42.58 39.8812 40.7069L51.2684 28.9792C50.5693 28.8145 49.8403 28.7273 49.0909 28.7273Z" fill="url(#paint0_linear_262_32)"/>
<defs>
<linearGradient id="paint0_linear_262_32" x1="52.3636" y1="33.4545" x2="24.3636" y2="60.7273" gradientUnits="userSpaceOnUse">
<stop stop-color="#747ED7"/>
<stop offset="1" stop-color="#4F5796"/>
</linearGradient>
</defs>
</svg>
