<svg width="96" height="96" viewBox="0 0 96 96" fill="none" xmlns="http://www.w3.org/2000/svg">
<circle opacity="0.4" cx="48" cy="48" r="48" fill="#D9D9D9"/>
<circle cx="48" cy="48" r="44" fill="#F6F7FF"/>
<g opacity="0.9">
<path d="M58.6669 71.1111C58.6669 71.5826 58.4796 72.0348 58.1462 72.3682C57.8128 72.7016 57.3606 72.8889 56.8891 72.8889H39.1113C38.6398 72.8889 38.1876 72.7016 37.8542 72.3682C37.5208 72.0348 37.3335 71.5826 37.3335 71.1111C37.3335 70.6396 37.5208 70.1875 37.8542 69.8541C38.1876 69.5207 38.6398 69.3334 39.1113 69.3334H56.8891C57.3606 69.3334 57.8128 69.5207 58.1462 69.8541C58.4796 70.1875 58.6669 70.6396 58.6669 71.1111ZM67.5557 42.6667C67.5634 45.6304 66.8939 48.5566 65.5983 51.2221C64.3028 53.8875 62.4154 56.2218 60.0802 58.0467C59.6436 58.3814 59.2892 58.8115 59.0443 59.3041C58.7993 59.7967 58.6702 60.3388 58.6669 60.8889V62.2223C58.6669 63.1652 58.2922 64.0696 57.6255 64.7364C56.9587 65.4032 56.0543 65.7778 55.1113 65.7778H40.8891C39.9461 65.7778 39.0417 65.4032 38.3749 64.7364C37.7081 64.0696 37.3335 63.1652 37.3335 62.2223V60.8889C37.3332 60.3454 37.2082 59.8091 36.9682 59.3214C36.7282 58.8337 36.3795 58.4075 35.9491 58.0756C33.6197 56.2615 31.7336 53.9412 30.4335 51.2905C29.1333 48.6398 28.4532 45.728 28.4446 42.7756C28.3868 32.1845 36.9468 23.3645 47.5291 23.1111C50.1365 23.0483 52.7302 23.5077 55.1574 24.4623C57.5847 25.4169 59.7964 26.8474 61.6625 28.6696C63.5286 30.4918 65.0113 32.6688 66.0234 35.0727C67.0355 37.4765 67.5565 40.0585 67.5557 42.6667ZM64.0002 42.6667C64.0008 40.5326 63.5745 38.42 62.7464 36.4531C61.9182 34.4863 60.705 32.705 59.178 31.2141C57.6511 29.7232 55.8413 28.5528 53.8553 27.7718C51.8692 26.9909 49.747 26.6151 47.6135 26.6667C38.9469 26.8711 31.9535 34.0867 32.0002 42.7534C32.0083 45.168 32.5655 47.5492 33.6296 49.7167C34.6938 51.8842 36.2369 53.7813 38.1424 55.2645C38.9989 55.9303 39.6918 56.7834 40.1679 57.7582C40.6439 58.7331 40.8906 59.804 40.8891 60.8889V62.2223H55.1113V60.8889C55.1138 59.8009 55.3647 58.7279 55.8449 57.7516C56.3252 56.7753 57.0221 55.9216 57.8824 55.2556C59.7937 53.7619 61.3385 51.8512 62.3988 49.6694C63.459 47.4877 64.0068 45.0925 64.0002 42.6667ZM60.4202 40.5911C59.9592 38.0162 58.7204 35.6444 56.8705 33.7949C55.0206 31.9454 52.6485 30.7071 50.0735 30.2467C49.8433 30.2079 49.6076 30.2148 49.38 30.2671C49.1525 30.3193 48.9374 30.4159 48.7472 30.5513C48.5569 30.6866 48.3952 30.8581 48.2712 31.056C48.1472 31.2539 48.0634 31.4742 48.0246 31.7045C47.9858 31.9347 47.9927 32.1704 48.045 32.3979C48.0972 32.6255 48.1938 32.8406 48.3292 33.0308C48.4645 33.2211 48.6361 33.3828 48.8339 33.5068C49.0318 33.6308 49.2522 33.7146 49.4824 33.7534C53.1646 34.3734 56.2891 37.4978 56.9135 41.1867C56.9839 41.6007 57.1985 41.9765 57.5195 42.2474C57.8404 42.5183 58.2469 42.6669 58.6669 42.6667C58.7673 42.6661 58.8676 42.6579 58.9669 42.6423C59.4315 42.5629 59.8457 42.3023 60.1182 41.9176C60.3908 41.533 60.4994 41.0559 60.4202 40.5911Z" fill="#3E4DCE"/>
</g>
</svg>
