<svg width="96" height="96" viewBox="0 0 96 96" fill="none" xmlns="http://www.w3.org/2000/svg">
<circle opacity="0.4" cx="48" cy="48" r="48" fill="#D9D9D9"/>
<circle cx="48" cy="48" r="44" fill="#F0FFFE"/>
<path fill-rule="evenodd" clip-rule="evenodd" d="M26.7001 25.458C33.5982 25.458 39.1902 31.05 39.1902 37.9481V52.585H26.7001V25.458ZM39.1898 52.585C39.5801 55.5449 41.9806 61.4061 48.8502 60.3913C40.7515 65.3678 27.188 65.7582 26.6997 52.585H39.1898Z" fill="#40BFB4"/>
<path fill-rule="evenodd" clip-rule="evenodd" d="M68.4444 25.4579C61.5463 25.4579 55.9543 31.05 55.9543 37.9481V52.5842C55.9542 52.5842 55.9541 52.5842 55.9539 52.5842C54.9782 57.6583 48.3822 68.6652 35.2676 67.8065C39.7562 70.5387 65.6137 76.5885 68.444 52.5849H68.4444V25.4579Z" fill="#40BFB4"/>
</svg>
