<svg width="40" height="40" viewBox="0 0 40 40" fill="none" xmlns="http://www.w3.org/2000/svg">
<path d="M19.17 23.75C19.17 22.9765 18.8627 22.2346 18.3157 21.6876C17.7687 21.1406 17.0269 20.8333 16.2533 20.8333H12.92C12.1465 20.8333 11.4046 21.1406 10.8576 21.6876C10.3106 22.2346 10.0033 22.9765 10.0033 23.75V27.0833C10.0033 28.6933 11.31 30 12.92 30H16.2533C17.0269 30 17.7687 29.6927 18.3157 29.1457C18.8627 28.5987 19.17 27.8569 19.17 27.0833V23.75ZM12.92 23.3333H16.2533C16.3638 23.3333 16.4698 23.3772 16.548 23.4554C16.6261 23.5335 16.67 23.6395 16.67 23.75V27.0833C16.67 27.1938 16.6261 27.2998 16.548 27.378C16.4698 27.4561 16.3638 27.5 16.2533 27.5H12.92C12.8095 27.5 12.7035 27.4561 12.6254 27.378C12.5472 27.2998 12.5033 27.1938 12.5033 27.0833V23.75C12.5033 23.6395 12.5472 23.5335 12.6254 23.4554C12.7035 23.3772 12.8095 23.3333 12.92 23.3333ZM30 23.75C30 22.9765 29.6927 22.2346 29.1457 21.6876C28.5987 21.1406 27.8569 20.8333 27.0833 20.8333H23.75C22.9765 20.8333 22.2346 21.1406 21.6876 21.6876C21.1406 22.2346 20.8333 22.9765 20.8333 23.75V27.0833C20.8333 28.6933 22.1383 30 23.75 30H27.0833C27.8569 30 28.5987 29.6927 29.1457 29.1457C29.6927 28.5987 30 27.8569 30 27.0833V23.75ZM23.75 23.3333H27.0833C27.1938 23.3333 27.2998 23.3772 27.378 23.4554C27.4561 23.5335 27.5 23.6395 27.5 23.75V27.0833C27.5 27.1938 27.4561 27.2998 27.378 27.378C27.2998 27.4561 27.1938 27.5 27.0833 27.5H23.75C23.6395 27.5 23.5335 27.4561 23.4554 27.378C23.3772 27.2998 23.3333 27.1938 23.3333 27.0833V23.75C23.3333 23.6395 23.3772 23.5335 23.4554 23.4554C23.5335 23.3772 23.6395 23.3333 23.75 23.3333ZM19.1667 12.9167C19.1667 12.1434 18.8596 11.4018 18.313 10.8549C17.7664 10.3079 17.0249 10.0004 16.2517 10H12.9183C12.1448 10 11.4029 10.3073 10.8559 10.8543C10.309 11.4013 10.0017 12.1431 10.0017 12.9167V16.25C10.0017 17.86 11.3067 19.1667 12.9183 19.1667H16.2517C17.0252 19.1667 17.7671 18.8594 18.3141 18.3124C18.861 17.7654 19.1683 17.0235 19.1683 16.25V12.9167H19.1667ZM12.9167 12.5H16.25C16.3605 12.5 16.4665 12.5439 16.5446 12.622C16.6228 12.7002 16.6667 12.8062 16.6667 12.9167V16.25C16.6667 16.3605 16.6228 16.4665 16.5446 16.5446C16.4665 16.6228 16.3605 16.6667 16.25 16.6667H12.9167C12.8062 16.6667 12.7002 16.6228 12.622 16.5446C12.5439 16.4665 12.5 16.3605 12.5 16.25V12.9167C12.5 12.8062 12.5439 12.7002 12.622 12.622C12.7002 12.5439 12.8062 12.5 12.9167 12.5ZM29.995 12.9167C29.995 12.1434 29.6879 11.4018 29.1413 10.8549C28.5947 10.3079 27.8533 10.0004 27.08 10H23.7467C22.9731 10 22.2313 10.3073 21.6843 10.8543C21.1373 11.4013 20.83 12.1431 20.83 12.9167V16.25C20.83 17.86 22.1367 19.1667 23.7467 19.1667H27.08C27.8535 19.1667 28.5954 18.8594 29.1424 18.3124C29.6894 17.7654 29.9967 17.0235 29.9967 16.25V12.9167H29.995ZM23.745 12.5H27.0783C27.1888 12.5 27.2948 12.5439 27.373 12.622C27.4511 12.7002 27.495 12.8062 27.495 12.9167V16.25C27.495 16.3605 27.4511 16.4665 27.373 16.5446C27.2948 16.6228 27.1888 16.6667 27.0783 16.6667H23.745C23.6345 16.6667 23.5285 16.6228 23.4504 16.5446C23.3722 16.4665 23.3283 16.3605 23.3283 16.25V12.9167C23.3283 12.8062 23.3722 12.7002 23.4504 12.622C23.5285 12.5439 23.6345 12.5 23.745 12.5ZM10.4167 5C8.98008 5 7.60233 5.57068 6.5865 6.5865C5.57068 7.60233 5 8.98008 5 10.4167V29.5833C5 31.0199 5.57068 32.3977 6.5865 33.4135C7.60233 34.4293 8.98008 35 10.4167 35H29.5833C31.0199 35 32.3977 34.4293 33.4135 33.4135C34.4293 32.3977 35 31.0199 35 29.5833V10.4167C35 8.98008 34.4293 7.60233 33.4135 6.5865C32.3977 5.57068 31.0199 5 29.5833 5H10.4167ZM7.5 10.4167C7.5 8.80667 8.80667 7.5 10.4167 7.5H29.5833C31.1933 7.5 32.5 8.80667 32.5 10.4167V29.5833C32.5 30.3569 32.1927 31.0987 31.6457 31.6457C31.0987 32.1927 30.3569 32.5 29.5833 32.5H10.4167C9.64312 32.5 8.90125 32.1927 8.35427 31.6457C7.80729 31.0987 7.5 30.3569 7.5 29.5833V10.4167Z" fill="white"/>
</svg>
