<svg width="16" height="18" viewBox="0 0 16 18" fill="none" xmlns="http://www.w3.org/2000/svg">
<path d="M9.5 14.5484C9.5 14.9682 9.34196 15.3708 9.06066 15.6677C8.77936 15.9646 8.39782 16.1313 8 16.1313C7.60218 16.1313 7.22064 15.9646 6.93934 15.6677C6.65804 15.3708 6.5 14.9682 6.5 14.5484C6.5 14.1286 6.65804 13.7259 6.93934 13.4291C7.22064 13.1322 7.60218 12.9654 8 12.9654C8.39782 12.9654 8.77936 13.1322 9.06066 13.4291C9.34196 13.7259 9.5 14.1286 9.5 14.5484ZM9.5 9.27189C9.5 9.69172 9.34196 10.0943 9.06066 10.3912C8.77936 10.6881 8.39782 10.8548 8 10.8548C7.60218 10.8548 7.22064 10.6881 6.93934 10.3912C6.65804 10.0943 6.5 9.69172 6.5 9.27189C6.5 8.85207 6.65804 8.44944 6.93934 8.15258C7.22064 7.85572 7.60218 7.68894 8 7.68894C8.39782 7.68894 8.77936 7.85572 9.06066 8.15258C9.34196 8.44944 9.5 8.85207 9.5 9.27189ZM9.5 3.99539C9.5 4.41522 9.34196 4.81785 9.06066 5.11471C8.77936 5.41157 8.39782 5.57834 8 5.57834C7.60218 5.57834 7.22064 5.41157 6.93934 5.11471C6.65804 4.81785 6.5 4.41522 6.5 3.99539C6.5 3.57557 6.65804 3.17294 6.93934 2.87608C7.22064 2.57922 7.60218 2.41245 8 2.41245C8.39782 2.41245 8.77936 2.57922 9.06066 2.87608C9.34196 3.17294 9.5 3.57557 9.5 3.99539Z" fill="black"/>
</svg>
